<svg xmlns="http://www.w3.org/2000/svg" viewBox='0 0 100% 100%' ><g style="font-style:normal;font-weight:400;font-size:72px;line-height:1;font-family:'Brandmark Sans 14 Color';font-variant-ligatures:normal;text-align:center;text-anchor:middle"><path class="c1" d="M242.4421625 342.5838525v19.409355h-18.26391v67.768715H202.343415v-67.768715H184.07779v-19.409355h18.265625V342.42h21.8348375v.1638525h18.26391z" fill="#f0f0f0" aria-label="T"/><path class="c1" d="M329.66519 370.518v38.2908575c0 22.0104325-22.6252425 23.218895-30.7600125 23.218895-8.1339125 0-30.759155-1.2084625-30.759155-23.218895V370.518H288.76748v34.6996475c0 3.035585 1.1629625 9.697625 10.1376975 9.697625 8.9755925 0 10.1376975-6.66204 10.1376975-9.697625V370.518h20.622315z" fill="#f0f0f0" aria-label="u"/><path class="c1" d="M434.9407625 400.4069675c0 17.4890975-12.788755 31.6666175-28.562905 31.6666175-6.9419 0-13.3016625-2.747185-18.2525875-7.311255v5.1412725h-20.6216675V336.498H388.12527v39.5535875c4.950925-4.5640525 11.310705-7.311255 18.2525875-7.311255 15.77415 0 28.5616275 14.17752 28.562905 31.666635zm-21.1824375 0c0-7.526575-5.850705-13.6293675-13.0685975-13.6293675s-12.5644575 6.102775-12.5644575 13.6293675c0 7.52787 5.346565 13.630645 12.5644575 13.630645 7.216825 0 13.0685975-6.10407 13.0685975-13.630645z" fill="#f0f0f0" aria-label="b"/><path class="c1" d="M512.26173 408.322655h19.7131375c0 20.7551925-22.0292275 23.7392925-31.1398325 23.7392925s-32.327995-5.689425-32.327995-31.539305S488.5589775 368.376 500.6171425 368.376c18.6317775 0 27.354425 9.60834 30.25372 23.2426075.81305 3.7854075 1.1770675 7.873075 1.1770675 12.14234h-42.9305625c0 9.7168575 5.0820875 13.5261875 12.396965 13.5261875 7.3136175 0 10.7473975-4.1118175 10.7473975-8.96448zm-22.6491825-16.70403h23.10931l-.133735-.084385c0-4.3675275-3.2987675-9.6322625-11.413885-9.6322625-8.1026925 0-11.560395 5.79901-11.56169 9.7166475z" fill="#f0f0f0" aria-label="e"/><g aria-label="F"><path class="c1" d="M618.075935 361.9932075h-26.8400125v67.768715h-21.835695V342.42h21.835695v.1638525h26.84003v19.409355z" fill="#f0f0f0"/><path class="c3" d="M596.5230925 386.1646625c0-6.5135875 5.116265-11.793495 11.4279725-11.793495 6.31043 0 11.426695 5.2799075 11.426695 11.793495s-5.116265 11.7932675-11.426695 11.7932675c-6.3117075 0-11.4279725-5.2796975-11.4279725-11.7932675z" fill="#eab643"/></g><path class="c1" d="M654.9411025 429.9036025V336.498H675.56256v93.4056025h-20.6214575z" fill="#f0f0f0" aria-label="l"/><g aria-label="i"><path class="c3" d="M713.0336475 347.7872675c0-6.5122925 5.115845-11.7932675 11.426275-11.7932675 6.3121275 0 11.4279725 5.280975 11.4279725 11.7932675 0 6.5135875-5.115845 11.7945625-11.4279725 11.7945625-6.31043-.0000175-11.426275-5.2809925-11.426275-11.7945625z" fill="#eab643"/><path class="c1" d="M714.0919425 429.87576v-59.312015h20.622735v59.312015h-20.622735z" fill="#f0f0f0"/></g><path class="c1" d="M839.913285 429.8312925h-21.8348375l-13.4009925-16.759365-13.4001525 16.759365h-23.049075l24.92553-31.1725225L770.65413 370.518h21.8348375l11.58178 14.484925 11.58178-14.484925h23.04736l-23.10546 28.898065 24.3188575 30.4152275z" fill="#f0f0f0" aria-label="x"/></g></svg>